<svg xmlns="http://www.w3.org/2000/svg" version="1.1" xmlns:xlink="http://www.w3.org/1999/xlink" xmlns:svgjs="http://svgjs.dev/svgjs" width="1000" height="294" viewBox="0 0 2000 588"><g transform="matrix(1,0,0,1,-1.6906160379495532,-2.1795175414731034)"><svg viewBox="0 0 309 91" data-background-color="#efefef" preserveAspectRatio="xMidYMid meet" height="588" width="2000" xmlns="http://www.w3.org/2000/svg" xmlns:xlink="http://www.w3.org/1999/xlink"><g id="tight-bounds" transform="matrix(1,0,0,1,0.26120017786320204,0.3373062861803646)"><svg viewBox="0 0 308.4775996442736 90.32538742763927" height="90.32538742763927" width="308.4775996442736"><g><svg viewBox="0 0 308.4775996442736 90.32538742763927" height="90.32538742763927" width="308.4775996442736"><g><svg viewBox="0 0 308.4775996442736 90.32538742763927" height="90.32538742763927" width="308.4775996442736"><g id="textblocktransform"><svg viewBox="0 0 308.4775996442736 90.32538742763927" height="90.32538742763927" width="308.4775996442736" id="textblock"><g><svg viewBox="0 0 308.4775996442736 59.7851" height="59.7851" width="308.4775996442736"><g><svg><g></g><g></g></svg></g><g><svg><g><svg></svg></g><g></g></svg></g><g id="text-0"><svg viewBox="0 0 308.4775996442736 59.7851" height="59.7851" width="308.4775996442736"><g transform="matrix(1,0,0,1,0,0)"><svg width="244.64159999999995" viewBox="1.55 -36.5 151.19 36.95" height="59.7851" data-palette-color="#d94e28"><path d="M5.55 0L1.55 0 7.35-25 10.6-25 10.05-19.25 9.45-19.6Q10.25-21.45 11.65-22.78 13.05-24.1 14.83-24.8 16.6-25.5 18.35-25.5L18.35-25.5Q19.15-25.5 19.78-25.4 20.4-25.3 20.9-25.05L20.9-25.05 19.7-21.25Q19.2-21.5 18.57-21.63 17.95-21.75 17.1-21.75L17.1-21.75Q15.2-21.75 13.53-20.88 11.85-20 10.6-18.2 9.35-16.4 8.7-13.55L8.7-13.55 5.55 0ZM33.5 0.45L33.5 0.45Q29.9 0.45 27.37-1.07 24.85-2.6 23.52-5.18 22.2-7.75 22.2-10.8L22.2-10.8Q22.2-15.1 23.85-18.4 25.5-21.7 28.4-23.58 31.3-25.45 35.1-25.45L35.1-25.45Q38.75-25.45 41.25-23.93 43.75-22.4 45.05-19.88 46.35-17.35 46.35-14.25L46.35-14.25Q46.35-10 44.72-6.68 43.1-3.35 40.2-1.45 37.3 0.45 33.5 0.45ZM33.65-3L33.65-3Q35.45-3 37.02-3.78 38.6-4.55 39.8-6.03 41-7.5 41.65-9.55 42.3-11.6 42.3-14.1L42.3-14.1Q42.3-16.3 41.52-18.07 40.75-19.85 39.12-20.93 37.5-22 34.95-22L34.95-22Q33.15-22 31.55-21.23 29.95-20.45 28.77-19 27.6-17.55 26.92-15.5 26.25-13.45 26.25-10.95L26.25-10.95Q26.25-8.8 27.05-6.98 27.85-5.15 29.5-4.08 31.15-3 33.65-3ZM63 0.45L63 0.45Q59.55 0.45 57.07-1.07 54.6-2.6 53.3-5.18 52-7.75 52-10.85L52-10.85Q52-15.15 53.65-18.43 55.3-21.7 58.25-23.58 61.2-25.45 65.09-25.45L65.09-25.45Q67.95-25.45 70.07-24.45 72.2-23.45 73.52-21.7 74.84-19.95 75.3-17.75L75.3-17.75 71.09-16.75Q70.9-18.95 69.37-20.48 67.84-22 64.9-22L64.9-22Q63-22 61.37-21.2 59.75-20.4 58.55-18.93 57.35-17.45 56.7-15.43 56.05-13.4 56.05-10.9L56.05-10.9Q56.05-8.7 56.9-6.9 57.75-5.1 59.37-4.05 61-3 63.4-3L63.4-3Q65.34-3 67.07-4 68.8-5 69.5-6.95L69.5-6.95 73.4-5.55Q72.09-2.65 69.32-1.1 66.55 0.45 63 0.45ZM98.84-25L104.44-25 91.39-14.15 90.54-13.6 80.84-5.5 81.59-10.6 98.84-25ZM86.04-36.5L90.04-36.5 81.59 0 77.59 0 86.04-36.5ZM88.89-14.1L92.14-16.25 99.24 0 94.89 0 88.89-14.1ZM117.09 0.45L117.09 0.45Q113.64 0.45 111.17-1.05 108.69-2.55 107.39-5.1 106.09-7.65 106.09-10.8L106.09-10.8Q106.09-14.7 107.64-18.05 109.19-21.4 112.17-23.43 115.14-25.45 119.39-25.45L119.39-25.45Q122.44-25.45 124.62-24.2 126.79-22.95 127.94-20.78 129.09-18.6 129.09-15.85L129.09-15.85Q129.09-14.85 128.92-13.78 128.74-12.7 128.39-11.55L128.39-11.55 108.04-11.55 108.04-15.05 126.64-15.05 124.89-13.65Q125.04-14.25 125.12-14.85 125.19-15.45 125.19-16L125.19-16Q125.19-17.8 124.47-19.15 123.74-20.5 122.39-21.25 121.04-22 119.14-22L119.14-22Q116.69-22 114.97-21.03 113.24-20.05 112.17-18.4 111.09-16.75 110.62-14.73 110.14-12.7 110.14-10.65L110.14-10.65Q110.14-8.4 111.07-6.68 111.99-4.95 113.64-3.98 115.29-3 117.54-3L117.54-3Q120.09-3.05 121.74-4.1 123.39-5.15 124.44-6.85L124.44-6.85 127.59-4.75Q126.49-3.15 124.94-1.98 123.39-0.8 121.42-0.18 119.44 0.45 117.09 0.45ZM143.64 0.4L143.64 0.4Q141.24 0.4 139.54-0.55 137.84-1.5 137.14-3.3 136.44-5.1 136.99-7.6L136.99-7.6 142.24-30.5 146.59-31.75 140.89-7.4Q140.39-5.1 141.51-4.13 142.64-3.15 144.34-3.15L144.34-3.15Q145.59-3.15 146.54-3.5 147.49-3.85 148.19-4.4L148.19-4.4 148.99-1.1Q147.74-0.25 146.44 0.08 145.14 0.4 143.64 0.4ZM151.94-21.55L135.14-21.55 135.94-25 152.74-25 151.94-21.55Z" opacity="1" transform="matrix(1,0,0,1,0,0)" fill="#d94e28" class="wordmark-text-0" data-fill-palette-color="primary"></path></svg></g><g><svg xmlns="http://www.w3.org/2000/svg" xmlns:xlink="http://www.w3.org/1999/xlink" version="1.1" x="258.75649999999996" y="3.552713678800501e-15" viewBox="9.64 1 81.36 97.828" enable-background="new 0 0 100 100" xml:space="preserve" height="59.78509999999999" width="49.721099644273615" class="icon-dxe-0" data-fill-palette-color="accent" id="dxe-0"><g fill="#f9744c" data-fill-palette-color="accent"><g fill="#f9744c" data-fill-palette-color="accent"><path fill="#f9744c" d="M71.15 55.636C79.794 46.181 84.623 37.095 87.28 29.174 87.28 29.198 87.28 29.198 87.288 29.214 87.288 29.214 88.357 26.425 89.196 22.035 89.258 21.743 89.3 21.476 89.355 21.181 89.418 20.813 89.483 20.434 89.539 20.048 90.568 13.655 90.226 8.603 89.778 5.626 89.921 5.491 90.073 5.323 90.216 5.131 90.743 4.468 90.968 3.782 90.736 3.599L90.456 3.387 91 1 88.413 1.818 88.07 1.562C87.831 1.387 87.224 1.786 86.706 2.448 86.602 2.591 86.506 2.728 86.426 2.863 86.426 2.863 76.953 3.158 65.994 10.118H66.011C50.687 19.568 43.44 34.428 43.44 34.428 15.801 30.718 9.64 56.449 9.64 56.449 63.513 53.289 56.369 93.992 56.369 93.992 79.945 83.649 71.15 55.636 71.15 55.636M69.371 41.524C66.928 44.214 62.81 44.92 59.482 43.001 55.667 40.806 54.334 36.01 56.504 32.291 56.768 31.828 57.079 31.417 57.422 31.038 59.856 28.348 63.974 27.645 67.31 29.561 71.118 31.748 72.459 36.548 70.289 40.272A8 8 0 0 1 69.371 41.524" data-fill-palette-color="accent"></path><path fill="#f9744c" d="M30.949 97.333C44.245 92.504 49.082 74.949 49.082 74.949 34.956 81.278 30.949 97.333 30.949 97.333" data-fill-palette-color="accent"></path><path fill="#f9744c" d="M16.806 98.828C34.429 92.324 40.758 68.428 40.758 68.428 22.051 76.96 16.806 98.828 16.806 98.828" data-fill-palette-color="accent"></path><path fill="#f9744c" d="M14.292 84.28C27.589 79.459 32.426 61.908 32.426 61.908 18.307 68.226 14.292 84.28 14.292 84.28" data-fill-palette-color="accent"></path></g></g></svg></g></svg></g></svg></g><g transform="matrix(1,0,0,1,58.919221532056255,73.8989272676)"><svg viewBox="0 0 190.63915658016109 16.426460160039277" height="16.426460160039277" width="190.63915658016109"><g transform="matrix(1,0,0,1,0,0)"><svg width="190.63915658016109" viewBox="0.44 -34.28 403.71 34.790000000000006" height="16.426460160039277" data-palette-color="#d94e28"><path d="M28.69 0L24.29 0 21.29-8.25 7.89-8.25 4.86 0 0.44 0 12.82-31.98 16.53-31.98 28.69 0ZM14.72-26.44L14.6-26.44 9.23-11.87 20-11.87 14.72-26.44ZM41.11-2.93Q43.41-2.93 44.72-3.85 46.04-4.76 46.04-6.27 46.04-7.79 44.92-8.68 43.8-9.57 40.84-10.25L40.84-10.25Q36.35-11.23 34.24-12.85 32.13-14.48 32.13-17.33 32.13-20.19 34.62-22.2 37.11-24.22 41.11-24.22 45.11-24.22 47.59-22.11 50.07-20 49.95-16.87L49.95-16.87 49.9-16.75 45.77-16.75Q45.77-18.38 44.44-19.58 43.11-20.78 40.95-20.78 38.79-20.78 37.62-19.81 36.45-18.85 36.45-17.36 36.45-15.87 37.47-15.09 38.5-14.31 41.5-13.67L41.5-13.67Q46.09-12.67 48.24-11 50.39-9.33 50.39-6.57L50.39-6.57Q50.39-3.39 47.84-1.44 45.29 0.51 40.99 0.51 36.69 0.51 34.04-1.73 31.39-3.98 31.52-7.18L31.52-7.18 31.56-7.3 35.69-7.3Q35.81-5.1 37.34-3.99 38.86-2.88 41.16-2.88L41.16-2.88 41.11-2.93ZM73.63-17.55L88.22-17.55 88.22-14.16 73.63-14.16 73.63 0 69.3 0 69.3-31.98 90.47-31.98 90.47-28.59 73.63-28.59 73.63-17.55ZM100.72 0.51L100.72 0.51Q97.01 0.51 95.06-1.37 93.11-3.25 93.11-6.64 93.11-10.03 95.84-11.96 98.57-13.89 103.36-13.89L103.36-13.89 108.05-13.89 108.05-16.24Q108.05-18.33 106.76-19.54 105.48-20.75 103.3-20.75 101.11-20.75 99.79-19.71 98.48-18.68 98.48-17.14L98.48-17.14 94.35-17.14 94.3-17.26Q94.18-19.95 96.8-22.06 99.43-24.17 103.49-24.17 107.56-24.17 109.98-22.08 112.39-20 112.39-16.19L112.39-16.19 112.39-4.74Q112.39-1.98 113 0.05L113 0.05 108.53 0.05Q108.07-2.22 108.05-3.52L108.05-3.52Q106.78-1.71 104.84-0.6 102.9 0.51 100.72 0.51ZM97.48-6.54L97.48-6.54 97.45-6.54Q97.45-4.93 98.45-4.03 99.45-3.13 101.55-3.13 103.65-3.13 105.57-4.31 107.49-5.49 108.07-7.08L108.07-7.08 108.07-10.96 103.24-10.96Q100.65-10.96 99.06-9.68 97.48-8.4 97.48-6.54ZM127.53-2.93Q129.82-2.93 131.14-3.85 132.46-4.76 132.46-6.27 132.46-7.79 131.34-8.68 130.21-9.57 127.26-10.25L127.26-10.25Q122.77-11.23 120.65-12.85 118.54-14.48 118.54-17.33 118.54-20.19 121.03-22.2 123.52-24.22 127.53-24.22 131.53-24.22 134.01-22.11 136.49-20 136.36-16.87L136.36-16.87 136.32-16.75 132.19-16.75Q132.19-18.38 130.86-19.58 129.53-20.78 127.37-20.78 125.21-20.78 124.04-19.81 122.86-18.85 122.86-17.36 122.86-15.87 123.89-15.09 124.91-14.31 127.92-13.67L127.92-13.67Q132.51-12.67 134.66-11 136.8-9.33 136.8-6.57L136.8-6.57Q136.8-3.39 134.25-1.44 131.7 0.51 127.4 0.51 123.11 0.51 120.46-1.73 117.81-3.98 117.93-7.18L117.93-7.18 117.98-7.3 122.11-7.3Q122.23-5.1 123.75-3.99 125.28-2.88 127.58-2.88L127.58-2.88 127.53-2.93ZM143.59-23.73L143.59-29.47 147.96-29.47 147.96-23.73 152.45-23.73 152.45-20.51 147.96-20.51 147.96-6.08Q147.96-3.05 150.47-3.05L150.47-3.05Q151.25-3.05 152.08-3.34L152.08-3.34 152.65-0.39Q151.47 0.51 149.35 0.51L149.35 0.51Q146.62 0.51 145.1-1.12 143.59-2.76 143.59-6.08L143.59-6.08 143.59-20.51 139.83-20.51 139.83-23.73 143.59-23.73ZM196 0L191.61 0 188.6-8.25 175.2-8.25 172.17 0 167.75 0 180.13-31.98 183.84-31.98 196 0ZM182.04-26.44L181.91-26.44 176.54-11.87 187.31-11.87 182.04-26.44ZM208.42-2.93Q210.72-2.93 212.04-3.85 213.36-4.76 213.36-6.27 213.36-7.79 212.23-8.68 211.11-9.57 208.16-10.25L208.16-10.25Q203.66-11.23 201.55-12.85 199.44-14.48 199.44-17.33 199.44-20.19 201.93-22.2 204.42-24.22 208.42-24.22 212.43-24.22 214.91-22.11 217.38-20 217.26-16.87L217.26-16.87 217.21-16.75 213.09-16.75Q213.09-18.38 211.76-19.58 210.43-20.78 208.27-20.78 206.11-20.78 204.93-19.81 203.76-18.85 203.76-17.36 203.76-15.87 204.79-15.09 205.81-14.31 208.82-13.67L208.82-13.67Q213.41-12.67 215.55-11 217.7-9.33 217.7-6.57L217.7-6.57Q217.7-3.39 215.15-1.44 212.6 0.51 208.3 0.51 204.01 0.51 201.36-1.73 198.71-3.98 198.83-7.18L198.83-7.18 198.88-7.3 203-7.3Q203.13-5.1 204.65-3.99 206.18-2.88 208.47-2.88L208.47-2.88 208.42-2.93ZM248.85-28.59L240.94-28.59 240.94-16.21 248.85-16.21Q252.02-16.21 253.67-17.9 255.32-19.58 255.32-22.36 255.32-25.15 253.66-26.87 252-28.59 248.85-28.59L248.85-28.59ZM248.85-12.84L248.85-12.84 240.94-12.84 240.94 0 236.62 0 236.62-31.98 248.85-31.98Q253.93-31.98 256.78-29.38 259.64-26.78 259.64-22.38 259.64-17.97 256.8-15.41 253.95-12.84 248.85-12.84ZM267.67-12.06L267.67-12.06 267.67-11.57Q267.67-7.62 269.29-5.25 270.92-2.88 273.97-2.88 277.02-2.88 278.66-5.26 280.29-7.64 280.29-11.57L280.29-11.57 280.29-12.06Q280.29-15.94 278.64-18.35 277-20.75 273.96-20.75 270.92-20.75 269.29-18.35 267.67-15.94 267.67-12.06ZM263.32-11.57L263.32-11.57 263.32-12.06Q263.32-17.43 266.21-20.8 269.09-24.17 273.97-24.17 278.85-24.17 281.73-20.81 284.61-17.46 284.61-12.06L284.61-12.06 284.61-11.57Q284.61-6.15 281.74-2.82 278.88 0.51 273.98 0.51 269.09 0.51 266.21-2.83 263.32-6.18 263.32-11.57ZM298.77-2.93Q301.07-2.93 302.38-3.85 303.7-4.76 303.7-6.27 303.7-7.79 302.58-8.68 301.46-9.57 298.5-10.25L298.5-10.25Q294.01-11.23 291.9-12.85 289.79-14.48 289.79-17.33 289.79-20.19 292.28-22.2 294.77-24.22 298.77-24.22 302.78-24.22 305.25-22.11 307.73-20 307.61-16.87L307.61-16.87 307.56-16.75 303.43-16.75Q303.43-18.38 302.1-19.58 300.77-20.78 298.61-20.78 296.45-20.78 295.28-19.81 294.11-18.85 294.11-17.36 294.11-15.87 295.13-15.09 296.16-14.31 299.16-13.67L299.16-13.67Q303.75-12.67 305.9-11 308.05-9.33 308.05-6.57L308.05-6.57Q308.05-3.39 305.5-1.44 302.95 0.51 298.65 0.51 294.35 0.51 291.7-1.73 289.05-3.98 289.18-7.18L289.18-7.18 289.23-7.3 293.35-7.3Q293.47-5.1 295-3.99 296.53-2.88 298.82-2.88L298.82-2.88 298.77-2.93ZM322.3-2.93Q324.6-2.93 325.92-3.85 327.24-4.76 327.24-6.27 327.24-7.79 326.11-8.68 324.99-9.57 322.04-10.25L322.04-10.25Q317.54-11.23 315.43-12.85 313.32-14.48 313.32-17.33 313.32-20.19 315.81-22.2 318.3-24.22 322.3-24.22 326.31-24.22 328.79-22.11 331.26-20 331.14-16.87L331.14-16.87 331.09-16.75 326.97-16.75Q326.97-18.38 325.64-19.58 324.31-20.78 322.15-20.78 319.98-20.78 318.81-19.81 317.64-18.85 317.64-17.36 317.64-15.87 318.67-15.09 319.69-14.31 322.69-13.67L322.69-13.67Q327.28-12.67 329.43-11 331.58-9.33 331.58-6.57L331.58-6.57Q331.58-3.39 329.03-1.44 326.48 0.51 322.18 0.51 317.88 0.51 315.24-1.73 312.59-3.98 312.71-7.18L312.71-7.18 312.76-7.3 316.88-7.3Q317.01-5.1 318.53-3.99 320.06-2.88 322.35-2.88L322.35-2.88 322.3-2.93ZM337.34-23.78L341.66-23.78 341.66 0 337.34 0 337.34-23.78ZM337.34-34.28L341.66-34.28 341.66-29.86 337.34-29.86 337.34-34.28ZM358.16-20.65L358.16-20.65Q354.35-20.65 352.6-17.04L352.6-17.04 352.6-6.74Q354.38-3 358.24-3L358.24-3Q361.24-3 362.77-5.11 364.29-7.23 364.29-10.94L364.29-10.94 364.24-11.4Q364.24-15.65 362.7-18.15 361.17-20.65 358.16-20.65ZM368.61-11.4L368.61-11.4 368.61-10.94Q368.61-5.71 366.13-2.6 363.66 0.51 359.36 0.51L359.36 0.51Q354.7 0.51 352.38-3.1L352.38-3.1 351.86 0.05 348.32 0.05 348.32-34.23 352.65-34.23 352.65-20.92Q354.99-24.17 359.34-24.17 363.68-24.17 366.15-20.7 368.61-17.24 368.61-11.4ZM374.25-34.28L378.57-34.28 378.57 0 374.25 0 374.25-34.28ZM399.81-14.21L399.81-14.77Q399.81-17.46 398.42-19.1 397.03-20.75 394.41-20.75L394.41-20.75Q392.26-20.75 390.71-18.95 389.16-17.14 388.8-14.33L388.8-14.33 388.85-14.21 399.81-14.21ZM395.07 0.51L395.07 0.51Q390.12 0.51 387.17-2.76 384.23-6.03 384.23-11.38L384.23-11.38 384.23-12.35Q384.23-17.36 387.22-20.76 390.21-24.17 394.41-24.17L394.41-24.17Q399.15-24.17 401.65-21.33 404.15-18.48 404.15-13.53L404.15-13.53 404.15-10.82 388.72-10.82 388.65-10.72Q388.72-7.2 390.42-5.04 392.12-2.88 395.07-2.88L395.07-2.88Q399.22-2.88 401.81-5.22L401.81-5.22 403.52-2.42 403.5-2.42Q400.52 0.51 395.07 0.51Z" opacity="1" transform="matrix(1,0,0,1,0,0)" fill="#d94e28" class="slogan-text-1" data-fill-palette-color="secondary" id="text-1"></path></svg></g></svg></g></svg></g></svg></g></svg></g><defs></defs></svg><rect width="308.4775996442736" height="90.32538742763927" fill="none" stroke="none" visibility="hidden"></rect></g></svg></g></svg>